<svg width="1945" height="614" viewBox="0 0 1945 614" fill="none" xmlns="http://www.w3.org/2000/svg">
<rect width="1945" height="614" rx="307" fill="#E0115F"/>
<ellipse cx="1619" cy="307" rx="256" ry="262" fill="#FFFEFE"/>
<path d="M475.285 394.715C459.442 394.715 444.987 391.04 431.92 383.69C418.853 376.177 408.482 365.805 400.805 352.575C393.292 339.182 389.535 324.155 389.535 307.495C389.535 290.835 393.292 275.89 400.805 262.66C408.482 249.267 418.853 238.895 431.92 231.545C444.987 224.032 459.442 220.275 475.285 220.275C491.292 220.275 505.828 224.032 518.895 231.545C531.962 238.895 542.252 249.185 549.765 262.415C557.278 275.645 561.035 290.672 561.035 307.495C561.035 324.318 557.278 339.345 549.765 352.575C542.252 365.805 531.962 376.177 518.895 383.69C505.828 391.04 491.292 394.715 475.285 394.715ZM475.285 375.36C487.208 375.36 497.907 372.583 507.38 367.03C517.017 361.477 524.53 353.555 529.92 343.265C535.473 332.975 538.25 321.052 538.25 307.495C538.25 293.775 535.473 281.852 529.92 271.725C524.53 261.435 517.098 253.513 507.625 247.96C498.152 242.407 487.372 239.63 475.285 239.63C463.198 239.63 452.418 242.407 442.945 247.96C433.472 253.513 425.958 261.435 420.405 271.725C415.015 281.852 412.32 293.775 412.32 307.495C412.32 321.052 415.015 332.975 420.405 343.265C425.958 353.555 433.472 361.477 442.945 367.03C452.582 372.583 463.362 375.36 475.285 375.36ZM655.883 256.29C672.216 256.29 685.446 261.272 695.573 271.235C705.699 281.035 710.763 295.245 710.763 313.865V393H688.713V317.05C688.713 303.657 685.364 293.448 678.668 286.425C671.971 279.238 662.824 275.645 651.228 275.645C639.468 275.645 630.076 279.32 623.053 286.67C616.193 294.02 612.763 304.718 612.763 318.765V393H590.468V258.74H612.763V277.85C617.173 270.99 623.134 265.682 630.648 261.925C638.324 258.168 646.736 256.29 655.883 256.29Z" fill="#FFFAFA"/>
</svg>
